<svg id="Layer_1" data-name="Layer 1" xmlns="http://www.w3.org/2000/svg" viewBox="0 0 100.89 59.41"><defs><style>.cls-1{fill:#098bcc;}.cls-2{fill:#607782;}</style></defs><path class="cls-1" d="M12.19,5.79v7.44h4.94v4.08H12.19V30.85c0,2.59.62,3.12,2.73,3.12a8.79,8.79,0,0,0,2.21-.2V38a30.65,30.65,0,0,1-3.55.29c-5.23,0-6.86-1.68-6.86-6.68V17.31H2.59V13.23H6.72V5.79Z" transform="translate(-2.59 -3.77)"/><path class="cls-1" d="M25.24,3.77V9H19.77V3.77Zm0,9.46V38.05H19.77V13.23Z" transform="translate(-2.59 -3.77)"/><path class="cls-1" d="M36.86,5.79v7.44H41.8v4.08H36.86V30.85c0,2.59.62,3.12,2.74,3.12a8.75,8.75,0,0,0,2.2-.2V38a30.65,30.65,0,0,1-3.55.29c-5.23,0-6.86-1.68-6.86-6.68V17.31H27.26V13.23h4.13V5.79Z" transform="translate(-2.59 -3.77)"/><path class="cls-1" d="M49.77,13.23V28.64c0,3.69,1.39,5.76,4.75,5.76,4.08,0,6.1-2.45,6.1-6.58V13.23h5.47V38.05H60.72V34.59h-.1a8.32,8.32,0,0,1-7.11,4.13c-6.33,0-9.21-3.22-9.21-9.51v-16Z" transform="translate(-2.59 -3.77)"/><path class="cls-1" d="M90.33,20.19H84.62c-.43-2.26-2.06-3.31-5-3.31-2.69,0-4.51.91-4.51,2.54s1.48,2.69,6.29,3.6c7.63,1.39,9.79,3.79,9.79,7.63,0,5.19-4.75,8.07-11.09,8.07-6.53,0-10.85-2.93-11-8.64h5.47c.34,2.93,2.21,4.32,5.62,4.32s5.52-1,5.52-3.12c0-1.73-1.11-3-8-4.23-4.13-.72-8.07-2.54-8.07-7.39,0-4.66,4.57-7.1,10.37-7.1S89.8,15.24,90.33,20.19Z" transform="translate(-2.59 -3.77)"/><path class="cls-2" d="M8.1,54.1a3.91,3.91,0,0,1,1.08-.88,2.86,2.86,0,0,1,1.39-.33,2.71,2.71,0,0,1,1.2.25,2.54,2.54,0,0,1,.92.74,3.41,3.41,0,0,1,.57,1.18,5.66,5.66,0,0,1,.2,1.55,5.93,5.93,0,0,1-.23,1.68,3.9,3.9,0,0,1-.64,1.29,2.88,2.88,0,0,1-1,.83,3,3,0,0,1-1.36.3,2.62,2.62,0,0,1-1.27-.28,2.7,2.7,0,0,1-.89-.8L8,60.32a.32.32,0,0,1-.34.29H6.75v-11H8.1Zm0,4.68a2,2,0,0,0,.8.69,2.22,2.22,0,0,0,1,.21,2,2,0,0,0,1.64-.76,3.75,3.75,0,0,0,.57-2.26,3.34,3.34,0,0,0-.51-2A1.71,1.71,0,0,0,10.13,54a2.11,2.11,0,0,0-1.14.3,3.38,3.38,0,0,0-.89.85Z" transform="translate(-2.59 -3.77)"/><path class="cls-2" d="M21.06,53l-4.23,9.84a.74.74,0,0,1-.17.24.46.46,0,0,1-.31.09h-1l1.38-3L13.61,53h1.15a.47.47,0,0,1,.28.08.52.52,0,0,1,.14.2l2,4.78a4.6,4.6,0,0,1,.2.66c.07-.24.15-.46.23-.67l2-4.77a.38.38,0,0,1,.15-.2A.39.39,0,0,1,20,53Z" transform="translate(-2.59 -3.77)"/><path class="cls-2" d="M33.84,49.86V60.61H32.38V55.72h-5.8v4.89H25.13V49.86h1.45v4.79h5.8V49.86Z" transform="translate(-2.59 -3.77)"/><path class="cls-2" d="M41.75,59.54a2.69,2.69,0,0,1-.59.52,3.94,3.94,0,0,1-.74.37,5.47,5.47,0,0,1-.82.21,4.65,4.65,0,0,1-.83.07,3.82,3.82,0,0,1-1.45-.27,3.09,3.09,0,0,1-1.15-.78,3.54,3.54,0,0,1-.75-1.27,5.13,5.13,0,0,1-.27-1.74,4.46,4.46,0,0,1,.24-1.48,3.75,3.75,0,0,1,.7-1.2,3.21,3.21,0,0,1,1.12-.79,3.57,3.57,0,0,1,1.49-.29,3.28,3.28,0,0,1,1.26.23,2.85,2.85,0,0,1,1,.66,3,3,0,0,1,.66,1.06,4,4,0,0,1,.24,1.45.76.76,0,0,1-.07.41c0,.08-.13.11-.25.11H36.47a4.14,4.14,0,0,0,.2,1.25,2.54,2.54,0,0,0,.49.89,1.87,1.87,0,0,0,.75.53,2.5,2.5,0,0,0,1,.18,2.77,2.77,0,0,0,.87-.12,3.76,3.76,0,0,0,.63-.25,3.81,3.81,0,0,0,.43-.25.56.56,0,0,1,.31-.11.29.29,0,0,1,.25.12ZM40.67,56a2.53,2.53,0,0,0-.13-.85,2.09,2.09,0,0,0-.38-.67,1.84,1.84,0,0,0-.62-.44,2.09,2.09,0,0,0-.81-.15,2.06,2.06,0,0,0-1.52.56,2.63,2.63,0,0,0-.7,1.55Z" transform="translate(-2.59 -3.77)"/><path class="cls-2" d="M44.43,49.56v11H43.1v-11Z" transform="translate(-2.59 -3.77)"/><path class="cls-2" d="M47.42,54.19a3.88,3.88,0,0,1,1.11-1,3,3,0,0,1,2.63-.11,2.43,2.43,0,0,1,.91.75,3.55,3.55,0,0,1,.58,1.22,6.42,6.42,0,0,1,.2,1.67,5.2,5.2,0,0,1-.23,1.56A3.79,3.79,0,0,1,52,59.57a3,3,0,0,1-2.42,1.14,2.72,2.72,0,0,1-1.19-.24,2.65,2.65,0,0,1-.88-.65v3.36H46.14V53H47a.33.33,0,0,1,.35.28Zm.07,4.59a2,2,0,0,0,.8.69,2.19,2.19,0,0,0,1,.21,2,2,0,0,0,1.64-.76,3.56,3.56,0,0,0,.57-2.16,5.31,5.31,0,0,0-.13-1.28,2.69,2.69,0,0,0-.38-.87,1.54,1.54,0,0,0-.61-.5,2.1,2.1,0,0,0-.82-.16,2.16,2.16,0,0,0-1.14.3,3.27,3.27,0,0,0-.9.85Z" transform="translate(-2.59 -3.77)"/><path class="cls-2" d="M59.7,51.54a.61.61,0,0,1-.14.17.41.41,0,0,1-.19,0,.53.53,0,0,1-.3-.12c-.12-.09-.26-.18-.44-.29a4.06,4.06,0,0,0-.62-.28,2.79,2.79,0,0,0-.88-.12,2.55,2.55,0,0,0-.86.13,1.7,1.7,0,0,0-.62.35,1.52,1.52,0,0,0-.38.53,1.76,1.76,0,0,0-.13.66,1.23,1.23,0,0,0,.22.74,2,2,0,0,0,.59.51,4.41,4.41,0,0,0,.82.36l.95.32c.32.11.64.24.94.37a3.36,3.36,0,0,1,.83.53,2.24,2.24,0,0,1,.58.77,2.51,2.51,0,0,1,.23,1.12,3.69,3.69,0,0,1-.24,1.33,3.11,3.11,0,0,1-.7,1.07,3.17,3.17,0,0,1-1.14.72,4,4,0,0,1-1.52.27,4.72,4.72,0,0,1-1.91-.38,4.53,4.53,0,0,1-1.46-1l.42-.69a.93.93,0,0,1,.14-.14.46.46,0,0,1,.2-.05.4.4,0,0,1,.22.08l.28.2L55,59a3.28,3.28,0,0,0,.46.26,2.91,2.91,0,0,0,.59.2,3.36,3.36,0,0,0,.74.08,2.61,2.61,0,0,0,.92-.15,1.82,1.82,0,0,0,.69-.4,1.65,1.65,0,0,0,.43-.61,2.09,2.09,0,0,0,.15-.81,1.35,1.35,0,0,0-.22-.8,2,2,0,0,0-.58-.52,3.7,3.7,0,0,0-.83-.35l-.94-.3c-.32-.11-.64-.22-1-.36a3,3,0,0,1-.82-.52,2.4,2.4,0,0,1-.58-.81,3.11,3.11,0,0,1,0-2.3,2.71,2.71,0,0,1,.64-.94,3,3,0,0,1,1-.66,3.76,3.76,0,0,1,1.43-.25,4.46,4.46,0,0,1,1.63.28,3.9,3.9,0,0,1,1.31.83Z" transform="translate(-2.59 -3.77)"/><path class="cls-2" d="M67.74,53l-4.23,9.84a.74.74,0,0,1-.17.24.46.46,0,0,1-.31.09H62l1.38-3L60.29,53h1.15a.47.47,0,0,1,.28.08.52.52,0,0,1,.14.2l2,4.78a4.6,4.6,0,0,1,.2.66c.07-.24.15-.46.23-.67l2-4.77a.38.38,0,0,1,.15-.2.39.39,0,0,1,.25-.08Z" transform="translate(-2.59 -3.77)"/><path class="cls-2" d="M72.76,54.26a.3.3,0,0,1-.28.17.48.48,0,0,1-.25-.09l-.35-.18a3.35,3.35,0,0,0-.49-.19,2.31,2.31,0,0,0-.68-.08,1.9,1.9,0,0,0-.6.08,1.43,1.43,0,0,0-.46.24.95.95,0,0,0-.4.78.75.75,0,0,0,.17.49,1.32,1.32,0,0,0,.45.33,3.06,3.06,0,0,0,.63.25l.72.24a7.66,7.66,0,0,1,.72.27,2.46,2.46,0,0,1,.63.38,1.6,1.6,0,0,1,.45.55,1.7,1.7,0,0,1,.17.78,2.4,2.4,0,0,1-.19,1,2,2,0,0,1-.55.77,2.84,2.84,0,0,1-.9.52,3.86,3.86,0,0,1-3.77-.74l.32-.51a.5.5,0,0,1,.14-.15.41.41,0,0,1,.21,0,.5.5,0,0,1,.28.11l.37.23a2.87,2.87,0,0,0,.52.23,2.35,2.35,0,0,0,.76.11,2.08,2.08,0,0,0,.69-.11,1.25,1.25,0,0,0,.48-.27,1,1,0,0,0,.29-.4,1.29,1.29,0,0,0,.1-.48.81.81,0,0,0-.17-.52,1.35,1.35,0,0,0-.45-.35,4.12,4.12,0,0,0-.63-.26L70,57.16c-.25-.08-.49-.18-.73-.28a2.38,2.38,0,0,1-.63-.39,1.7,1.7,0,0,1-.45-.57,1.89,1.89,0,0,1-.17-.83,2,2,0,0,1,.18-.83,2,2,0,0,1,.53-.71,2.59,2.59,0,0,1,.85-.48,3.33,3.33,0,0,1,1.14-.18,3.82,3.82,0,0,1,1.35.23,3.29,3.29,0,0,1,1,.65Z" transform="translate(-2.59 -3.77)"/><path class="cls-2" d="M76.71,60.73a1.8,1.8,0,0,1-1.38-.51,2,2,0,0,1-.48-1.44V54.12h-.92a.27.27,0,0,1-.2-.07.25.25,0,0,1-.08-.22V53.3l1.24-.16.31-2.34a.32.32,0,0,1,.1-.19.28.28,0,0,1,.21-.07h.67v2.62h2.2v1h-2.2v4.57a1,1,0,0,0,.23.71.85.85,0,0,0,.6.23,1.06,1.06,0,0,0,.37-.06,1.26,1.26,0,0,0,.26-.12l.2-.12a.22.22,0,0,1,.13-.06.22.22,0,0,1,.19.13l.39.64a2.56,2.56,0,0,1-.83.5A2.92,2.92,0,0,1,76.71,60.73Z" transform="translate(-2.59 -3.77)"/><path class="cls-2" d="M85.44,59.54a2.74,2.74,0,0,1-.6.52,3.85,3.85,0,0,1-.73.37,5.8,5.8,0,0,1-.82.21,4.73,4.73,0,0,1-.83.07A3.78,3.78,0,0,1,81,60.44a2.94,2.94,0,0,1-1.15-.78,3.54,3.54,0,0,1-.75-1.27,5.13,5.13,0,0,1-.27-1.74,4.46,4.46,0,0,1,.24-1.48,3.58,3.58,0,0,1,.7-1.2,3.21,3.21,0,0,1,1.12-.79,3.52,3.52,0,0,1,1.48-.29,3.3,3.3,0,0,1,1.27.23,2.73,2.73,0,0,1,1,.66,2.87,2.87,0,0,1,.67,1.06,4,4,0,0,1,.24,1.45.88.88,0,0,1-.07.41.27.27,0,0,1-.26.11H80.16a4.14,4.14,0,0,0,.2,1.25,2.39,2.39,0,0,0,.49.89,1.87,1.87,0,0,0,.75.53,2.5,2.5,0,0,0,1,.18,2.81,2.81,0,0,0,.87-.12,3.33,3.33,0,0,0,.62-.25A3.27,3.27,0,0,0,84.5,59a.56.56,0,0,1,.31-.11.29.29,0,0,1,.25.12ZM84.36,56a2.81,2.81,0,0,0-.13-.85,1.94,1.94,0,0,0-.39-.67,1.8,1.8,0,0,0-.61-.44,2.1,2.1,0,0,0-.82-.15,2,2,0,0,0-1.51.56A2.58,2.58,0,0,0,80.2,56Z" transform="translate(-2.59 -3.77)"/><path class="cls-2" d="M86.74,60.61V53h.8a.34.34,0,0,1,.36.28l.09.78a3.8,3.8,0,0,1,1-.85,2.22,2.22,0,0,1,1.21-.33,1.79,1.79,0,0,1,1.25.43,2.44,2.44,0,0,1,.68,1.15,2.41,2.41,0,0,1,.43-.71,2.3,2.3,0,0,1,.58-.5,2.38,2.38,0,0,1,.68-.28,3.12,3.12,0,0,1,.74-.09,2.76,2.76,0,0,1,1.07.19,2.15,2.15,0,0,1,.8.56,2.43,2.43,0,0,1,.49.9,3.88,3.88,0,0,1,.18,1.23v4.84H95.7V55.77a2.06,2.06,0,0,0-.39-1.36A1.4,1.4,0,0,0,94.19,54a1.68,1.68,0,0,0-.63.12,1.61,1.61,0,0,0-.52.34,1.49,1.49,0,0,0-.35.57,2.1,2.1,0,0,0-.14.79v4.84H91.21V55.77a2.11,2.11,0,0,0-.37-1.37A1.29,1.29,0,0,0,89.77,54a1.64,1.64,0,0,0-.91.27,3.27,3.27,0,0,0-.78.72v5.67Z" transform="translate(-2.59 -3.77)"/><path class="cls-2" d="M103.05,54.26a.29.29,0,0,1-.27.17.51.51,0,0,1-.26-.09l-.35-.18a3,3,0,0,0-.49-.19,2.24,2.24,0,0,0-.67-.08,1.92,1.92,0,0,0-.61.08,1.43,1.43,0,0,0-.46.24,1,1,0,0,0-.4.78.75.75,0,0,0,.17.49,1.42,1.42,0,0,0,.45.33,3.06,3.06,0,0,0,.63.25l.72.24c.25.08.49.17.73.27a2.85,2.85,0,0,1,.63.38,1.65,1.65,0,0,1,.61,1.33,2.4,2.4,0,0,1-.19,1,2,2,0,0,1-.55.77,2.84,2.84,0,0,1-.9.52,3.86,3.86,0,0,1-3.77-.74l.32-.51a.67.67,0,0,1,.14-.15.46.46,0,0,1,.21,0,.53.53,0,0,1,.29.11l.36.23a3.22,3.22,0,0,0,.52.23,2.41,2.41,0,0,0,.77.11,2,2,0,0,0,.68-.11,1.29,1.29,0,0,0,.49-.27,1.14,1.14,0,0,0,.29-.4,1.28,1.28,0,0,0,.09-.48.81.81,0,0,0-.17-.52,1.35,1.35,0,0,0-.45-.35,3.74,3.74,0,0,0-.63-.26l-.73-.22c-.25-.08-.49-.18-.73-.28a2.55,2.55,0,0,1-.63-.39,1.84,1.84,0,0,1-.45-.57,1.89,1.89,0,0,1-.16-.83,2,2,0,0,1,.18-.83,2,2,0,0,1,.52-.71,2.59,2.59,0,0,1,.85-.48,3.39,3.39,0,0,1,1.15-.18,3.76,3.76,0,0,1,1.34.23,3.29,3.29,0,0,1,1,.65Z" transform="translate(-2.59 -3.77)"/></svg>